<?xml version="1.0" encoding="utf-8"?>
<!-- Generator: Adobe Illustrator 26.0.1, SVG Export Plug-In . SVG Version: 6.00 Build 0)  -->
<svg version="1.1" id="Capa_1" xmlns="http://www.w3.org/2000/svg" xmlns:xlink="http://www.w3.org/1999/xlink" x="0px" y="0px"
	 viewBox="0 0 645 645" style="enable-background:new 0 0 645 645;" xml:space="preserve">
<style type="text/css">
	.st0{fill:#9CA2A7;}
</style>
<g transform="translate(0.000000,645.000000) scale(0.100000,-0.100000)">
	<path class="st0" d="M2370,5779c-88-9-267-41-333-60c-87-24-139-108-117-188c13-48,67-98,112-105c266-38,457-98,715-226
		c441-218,864-531,1324-978c364-353,703-762,924-1114c127-202,270-493,327-663c48-142,88-315,88-378c0-72,73-142,150-142
		c84,0,129,48,160,168c42,165,54,291,54,532c0,238-11,345-56,555c-147,688-571,1348-1208,1879C3879,5585,3087,5852,2370,5779z"/>
	<path class="st0" d="M4962,5488c-83-9-178-54-242-114c-27-26-50-50-50-53c0-4,33-34,73-66c104-86,355-334,455-450
		c47-55,92-107,99-115c11-12,19-8,59,30c60,60,113,166,122,250c18,155-25,279-134,388C5239,5463,5114,5505,4962,5488z"/>
	<path class="st0" d="M2163,2818C1175,1829,725,1372,711,1343c-90-181-56-390,88-534c146-146,364-180,541-83
		c31,17,496,475,1475,1454l1429,1429l-44,48c-156,171-299,317-435,443c-86,80-159,146-163,148C3598,4249,2951,3605,2163,2818z"/>
</g>
</svg>
