<svg xmlns="http://www.w3.org/2000/svg" viewBox="0 0 68 68"><defs><style>.cls-1{fill:#1a1a1a;}</style></defs><g id="Capa_2" data-name="Capa 2"><g id="Capa_1-2" data-name="Capa 1"><g id="CUSTOM_SCRAPING" data-name="CUSTOM SCRAPING"><path class="cls-1" d="M2.13,0A2.12,2.12,0,0,1,4.25,2.12V65.87a2.13,2.13,0,1,1-4.25,0V2.12A2.12,2.12,0,0,1,2.13,0ZM8.5,6.38a2.12,2.12,0,0,1,2.12-2.13h17a2.13,2.13,0,0,1,2.13,2.13v4.24a2.13,2.13,0,0,1-2.13,2.13h-17A2.12,2.12,0,0,1,8.5,10.62Zm8.5,17a2.12,2.12,0,0,1,2.12-2.13H48.88A2.12,2.12,0,0,1,51,23.38v4.24a2.12,2.12,0,0,1-2.12,2.13H19.12A2.12,2.12,0,0,1,17,27.62Zm8.5,17a2.12,2.12,0,0,1,2.12-2.13h25.5a2.13,2.13,0,0,1,2.13,2.13v4.24a2.13,2.13,0,0,1-2.13,2.13H27.62a2.12,2.12,0,0,1-2.12-2.13Zm8.5,17a2.12,2.12,0,0,1,2.12-2.13H65.88A2.12,2.12,0,0,1,68,57.38v4.24a2.12,2.12,0,0,1-2.12,2.13H36.12A2.12,2.12,0,0,1,34,61.62Z"/></g></g></g></svg>